<svg width="278" height="95" viewBox="0 0 278 95" fill="none" xmlns="http://www.w3.org/2000/svg">
<path d="M51.3889 17.7128C67.7784 17.7128 81.0646 30.9991 81.0647 47.3885C81.0647 63.7781 67.7785 77.0643 51.3889 77.0643C34.9994 77.0643 21.7131 63.7781 21.7131 47.3885C21.7132 30.9991 34.9994 17.7128 51.3889 17.7128Z" stroke="#9AE600" stroke-width="4"/>
<path d="M51.3555 13C70.3295 13 85.7109 28.3815 85.7109 47.3555C85.7109 66.3295 70.3295 81.7109 51.3555 81.7109C32.3815 81.7109 17 66.3295 17 47.3555C17 28.3815 32.3815 13 51.3555 13Z" stroke="#7CCF00" stroke-width="2"/>
<path d="M52.4458 57.7989V36.3555H60.9059C62.5253 36.3555 63.9074 36.6452 65.0522 37.2245C66.2039 37.7969 67.08 38.6101 67.6803 39.6641C68.2876 40.7112 68.5912 41.9432 68.5912 43.3602C68.5912 44.7842 68.2841 46.0092 67.6698 47.0353C67.0555 48.0544 66.1656 48.8362 64.9998 49.3807C63.8411 49.9252 62.4381 50.1974 60.7907 50.1974H55.1262V46.5537H60.0578C60.9234 46.5537 61.6423 46.435 62.2147 46.1977C62.7871 45.9604 63.2129 45.6044 63.4921 45.1297C63.7783 44.655 63.9214 44.0652 63.9214 43.3602C63.9214 42.6482 63.7783 42.0479 63.4921 41.5593C63.2129 41.0707 62.7836 40.7007 62.2042 40.4494C61.6319 40.1911 60.9094 40.062 60.0369 40.062H56.9795V57.7989H52.4458ZM64.0261 48.0405L69.3555 57.7989H64.3507L59.1364 48.0405H64.0261Z" fill="#9AE600"/>
<path d="M33.3555 57.7989V36.3555H41.8156C43.442 36.3555 44.8276 36.6661 45.9723 37.2873C47.1171 37.9016 47.9896 38.7567 48.5899 39.8526C49.1972 40.9415 49.5009 42.198 49.5009 43.622C49.5009 45.0459 49.1937 46.3024 48.5795 47.3913C47.9652 48.4802 47.0752 49.3283 45.9095 49.9356C44.7508 50.5429 43.3477 50.8466 41.7004 50.8466H36.3081V47.2133H40.9675C41.84 47.2133 42.559 47.0632 43.1244 46.7631C43.6968 46.456 44.1226 46.0336 44.4018 45.4962C44.688 44.9517 44.8311 44.327 44.8311 43.622C44.8311 42.91 44.688 42.2887 44.4018 41.7582C44.1226 41.2207 43.6968 40.8054 43.1244 40.5122C42.552 40.2121 41.826 40.062 40.9465 40.062H37.8892V57.7989H33.3555Z" fill="#9AE600"/>
<g filter="url(#filter0_d_27_1159)">
<path d="M257.441 23.6283V49.8101H251.995V23.6283H257.441Z" fill="#F8FAFC"/>
<path d="M247.633 23.6283V49.8101H242.187V23.6283H247.633Z" fill="#F8FAFC"/>
<path d="M228.981 50.1937C226.995 50.1937 225.278 49.7718 223.829 48.928C222.388 48.0758 221.276 46.8911 220.492 45.3741C219.708 43.8485 219.316 42.08 219.316 40.0687C219.316 38.0402 219.708 36.2675 220.492 34.7505C221.276 33.2249 222.388 32.0402 223.829 31.1965C225.278 30.3442 226.995 29.9181 228.981 29.9181C230.966 29.9181 232.68 30.3442 234.12 31.1965C235.569 32.0402 236.685 33.2249 237.469 34.7505C238.253 36.2675 238.645 38.0402 238.645 40.0687C238.645 42.08 238.253 43.8485 237.469 45.3741C236.685 46.8911 235.569 48.0758 234.12 48.928C232.68 49.7718 230.966 50.1937 228.981 50.1937ZM229.006 45.9749C229.91 45.9749 230.664 45.7192 231.269 45.2079C231.874 44.688 232.33 43.9806 232.637 43.0857C232.952 42.1908 233.11 41.1724 233.11 40.0303C233.11 38.8883 232.952 37.8698 232.637 36.9749C232.33 36.08 231.874 35.3726 231.269 34.8527C230.664 34.3329 229.91 34.0729 229.006 34.0729C228.094 34.0729 227.327 34.3329 226.705 34.8527C226.091 35.3726 225.627 36.08 225.312 36.9749C225.005 37.8698 224.851 38.8883 224.851 40.0303C224.851 41.1724 225.005 42.1908 225.312 43.0857C225.627 43.9806 226.091 44.688 226.705 45.2079C227.327 45.7192 228.094 45.9749 229.006 45.9749Z" fill="#F8FAFC"/>
<path d="M196.902 49.8101V23.6283H207.232C209.209 23.6283 210.896 23.982 212.294 24.6894C213.7 25.3882 214.77 26.3811 215.503 27.6681C216.244 28.9465 216.615 30.4507 216.615 32.1809C216.615 33.9195 216.24 35.4152 215.49 36.6681C214.74 37.9124 213.654 38.8669 212.23 39.5317C210.815 40.1965 209.102 40.5289 207.091 40.5289H200.175V36.08H206.196C207.253 36.08 208.131 35.9351 208.83 35.6453C209.529 35.3556 210.048 34.9209 210.389 34.3414C210.739 33.7618 210.913 33.0416 210.913 32.1809C210.913 31.3115 210.739 30.5786 210.389 29.982C210.048 29.3854 209.524 28.9337 208.817 28.6269C208.118 28.3115 207.236 28.1539 206.171 28.1539H202.438V49.8101H196.902ZM211.041 37.8953L217.548 49.8101H211.438L205.071 37.8953H211.041Z" fill="#F8FAFC"/>
<path d="M182.069 49.8101V30.1737H187.349V33.5998H187.554C187.912 32.3811 188.513 31.4606 189.356 30.8385C190.2 30.2078 191.172 29.8925 192.271 29.8925C192.544 29.8925 192.838 29.9095 193.153 29.9436C193.468 29.9777 193.745 30.0246 193.984 30.0842V34.9166C193.728 34.8399 193.375 34.7717 192.923 34.7121C192.471 34.6524 192.058 34.6226 191.683 34.6226C190.882 34.6226 190.166 34.7973 189.535 35.1467C188.913 35.4876 188.419 35.9649 188.052 36.5785C187.694 37.1922 187.515 37.8996 187.515 38.7007V49.8101H182.069Z" fill="#F8FAFC"/>
<path d="M169.503 50.1937C167.483 50.1937 165.744 49.7846 164.287 48.9664C162.838 48.1397 161.721 46.9721 160.937 45.4635C160.153 43.9465 159.761 42.1525 159.761 40.0814C159.761 38.0616 160.153 36.2888 160.937 34.7633C161.721 33.2377 162.825 32.0488 164.248 31.1965C165.68 30.3442 167.359 29.9181 169.285 29.9181C170.581 29.9181 171.787 30.1269 172.903 30.5445C174.028 30.9536 175.008 31.5715 175.844 32.3982C176.687 33.2249 177.344 34.2647 177.812 35.5175C178.281 36.7618 178.515 38.2192 178.515 39.8897V41.3854H161.935V38.0104H173.389C173.389 37.2263 173.219 36.5317 172.878 35.9266C172.537 35.3215 172.064 34.8485 171.459 34.5076C170.862 34.1581 170.167 33.9834 169.375 33.9834C168.548 33.9834 167.815 34.1752 167.176 34.5587C166.545 34.9337 166.051 35.4408 165.693 36.08C165.335 36.7107 165.152 37.4138 165.143 38.1894V41.3982C165.143 42.3698 165.322 43.2093 165.68 43.9167C166.047 44.6241 166.562 45.1695 167.227 45.553C167.892 45.9366 168.68 46.1283 169.592 46.1283C170.197 46.1283 170.751 46.0431 171.254 45.8726C171.757 45.7022 172.187 45.4465 172.545 45.1056C172.903 44.7647 173.176 44.3471 173.364 43.8527L178.4 44.1851C178.145 45.3954 177.621 46.4522 176.828 47.3556C176.044 48.2505 175.03 48.9493 173.785 49.4522C172.55 49.9465 171.122 50.1937 169.503 50.1937Z" fill="#F8FAFC"/>
<path d="M145.344 44.1595L145.357 37.6269H146.149L152.439 30.1738H158.69L150.24 40.0431H148.949L145.344 44.1595ZM140.409 49.8101V23.6283H145.855V49.8101H140.409ZM152.682 49.8101L146.903 41.2576L150.534 37.4095L159.061 49.8101H152.682Z" fill="#F8FAFC"/>
<path d="M127.203 50.1937C125.218 50.1937 123.5 49.7718 122.051 48.928C120.611 48.0758 119.499 46.8911 118.715 45.3741C117.931 43.8485 117.539 42.08 117.539 40.0687C117.539 38.0402 117.931 36.2675 118.715 34.7505C119.499 33.2249 120.611 32.0402 122.051 31.1965C123.5 30.3442 125.218 29.9181 127.203 29.9181C129.189 29.9181 130.902 30.3442 132.343 31.1965C133.791 32.0402 134.908 33.2249 135.692 34.7505C136.476 36.2675 136.868 38.0402 136.868 40.0687C136.868 42.08 136.476 43.8485 135.692 45.3741C134.908 46.8911 133.791 48.0758 132.343 48.928C130.902 49.7718 129.189 50.1937 127.203 50.1937ZM127.229 45.9749C128.132 45.9749 128.887 45.7192 129.492 45.2079C130.097 44.688 130.553 43.9806 130.86 43.0857C131.175 42.1908 131.333 41.1724 131.333 40.0303C131.333 38.8883 131.175 37.8698 130.86 36.9749C130.553 36.08 130.097 35.3726 129.492 34.8527C128.887 34.3329 128.132 34.0729 127.229 34.0729C126.317 34.0729 125.55 34.3329 124.928 34.8527C124.314 35.3726 123.85 36.08 123.534 36.9749C123.227 37.8698 123.074 38.8883 123.074 40.0303C123.074 41.1724 123.227 42.1908 123.534 43.0857C123.85 43.9806 124.314 44.688 124.928 45.2079C125.55 45.7192 126.317 45.9749 127.229 45.9749Z" fill="#F8FAFC"/>
<path d="M95.4412 49.8101V23.6283H105.771C107.757 23.6283 109.448 24.0076 110.846 24.7661C112.244 25.5161 113.309 26.5601 114.042 27.8982C114.783 29.2277 115.154 30.7618 115.154 32.5005C115.154 34.2391 114.779 35.7732 114.029 37.1027C113.279 38.4323 112.193 39.4678 110.769 40.2093C109.355 40.9507 107.641 41.3215 105.63 41.3215H99.0463V36.8854H104.735C105.801 36.8854 106.678 36.7022 107.369 36.3357C108.068 35.9607 108.587 35.4451 108.928 34.7888C109.278 34.124 109.453 33.3613 109.453 32.5005C109.453 31.6311 109.278 30.8726 108.928 30.2249C108.587 29.5686 108.068 29.0615 107.369 28.7036C106.67 28.3371 105.783 28.1539 104.71 28.1539H100.977V49.8101H95.4412Z" fill="#F8FAFC"/>
<path d="M191.092 67.992C190.277 67.992 189.573 67.8026 188.978 67.4239C188.383 67.0413 187.923 66.5129 187.597 65.8386C187.275 65.1606 187.114 64.3803 187.114 63.4977C187.114 62.6189 187.275 61.8386 187.597 61.1568C187.923 60.4712 188.372 59.9352 188.944 59.5489C189.52 59.1587 190.184 58.9636 190.938 58.9636C191.412 58.9636 191.868 59.0507 192.307 59.225C192.747 59.3954 193.141 59.6587 193.489 60.0148C193.842 60.367 194.12 60.8121 194.324 61.35C194.529 61.8841 194.631 62.5167 194.631 63.2477V63.7477H187.813V62.8557H193.597C193.597 62.2951 193.484 61.7913 193.256 61.3443C193.033 60.8935 192.72 60.5375 192.319 60.2761C191.921 60.0148 191.461 59.8841 190.938 59.8841C190.385 59.8841 189.898 60.0318 189.478 60.3273C189.057 60.6227 188.728 61.0129 188.489 61.4977C188.254 61.9826 188.135 62.5129 188.131 63.0886V63.6227C188.131 64.3159 188.251 64.922 188.489 65.4409C188.732 65.956 189.074 66.3557 189.518 66.6398C189.961 66.9239 190.485 67.0659 191.092 67.0659C191.504 67.0659 191.866 67.0015 192.177 66.8727C192.491 66.7439 192.754 66.5716 192.967 66.3557C193.182 66.136 193.345 65.8954 193.455 65.6341L194.415 65.9466C194.283 66.314 194.065 66.653 193.762 66.9636C193.463 67.2742 193.088 67.5242 192.637 67.7136C192.19 67.8992 191.675 67.992 191.092 67.992Z" fill="#62748E"/>
<path d="M185.36 59.0829V59.9635H181.195V59.0829H185.36ZM182.496 56.9919H183.513V65.5317C183.513 65.8954 183.576 66.1813 183.701 66.3897C183.826 66.5942 183.989 66.74 184.19 66.8272C184.39 66.9105 184.604 66.9522 184.832 66.9522C184.964 66.9522 185.078 66.9446 185.173 66.9294C185.267 66.9105 185.351 66.8916 185.423 66.8726L185.638 67.7874C185.54 67.8253 185.419 67.8594 185.275 67.8897C185.131 67.9238 184.953 67.9408 184.741 67.9408C184.37 67.9408 184.012 67.8594 183.667 67.6965C183.326 67.5336 183.046 67.2912 182.826 66.9692C182.606 66.6472 182.496 66.2476 182.496 65.7704V56.9919Z" fill="#62748E"/>
<path d="M175.454 68.0091C174.927 68.0091 174.446 67.9068 174.011 67.7023C173.575 67.4939 173.228 67.1947 172.971 66.8045C172.713 66.4106 172.584 65.9333 172.584 65.3727C172.584 64.9409 172.666 64.5773 172.829 64.2818C172.992 63.9864 173.223 63.7439 173.522 63.5545C173.821 63.3651 174.175 63.2155 174.584 63.1057C174.994 62.9958 175.444 62.9106 175.937 62.85C176.425 62.7894 176.838 62.7364 177.175 62.6909C177.516 62.6454 177.776 62.5735 177.954 62.475C178.132 62.3765 178.221 62.2174 178.221 61.9977V61.7932C178.221 61.1985 178.043 60.7307 177.687 60.3898C177.334 60.0451 176.827 59.8727 176.164 59.8727C175.535 59.8727 175.022 60.011 174.624 60.2875C174.23 60.564 173.954 60.8898 173.795 61.2648L172.834 60.9182C173.031 60.4409 173.304 60.0602 173.653 59.7761C174.001 59.4882 174.391 59.2818 174.823 59.1568C175.255 59.028 175.692 58.9636 176.136 58.9636C176.469 58.9636 176.816 59.0072 177.175 59.0943C177.539 59.1814 177.876 59.3329 178.187 59.5489C178.497 59.761 178.749 60.0583 178.942 60.4409C179.136 60.8197 179.232 61.3007 179.232 61.8841V67.8102H178.221V66.4295H178.158C178.037 66.6871 177.857 66.9371 177.619 67.1795C177.38 67.422 177.081 67.6208 176.721 67.7761C176.361 67.9314 175.939 68.0091 175.454 68.0091ZM175.59 67.0829C176.128 67.0829 176.594 66.9636 176.988 66.725C177.382 66.4864 177.685 66.1701 177.897 65.7761C178.113 65.3784 178.221 64.9409 178.221 64.4636V63.2023C178.145 63.2742 178.018 63.3386 177.84 63.3954C177.666 63.4523 177.463 63.5034 177.232 63.5489C177.005 63.5905 176.778 63.6265 176.55 63.6568C176.323 63.6871 176.119 63.7136 175.937 63.7364C175.444 63.797 175.024 63.8917 174.675 64.0204C174.327 64.1492 174.06 64.3273 173.874 64.5545C173.689 64.778 173.596 65.0659 173.596 65.4182C173.596 65.9485 173.785 66.3595 174.164 66.6511C174.543 66.939 175.018 67.0829 175.59 67.0829Z" fill="#62748E"/>
<path d="M159.282 67.8101V59.0829H160.265V60.4238H160.356C160.53 59.973 160.82 59.6189 161.225 59.3613C161.634 59.0999 162.125 58.9692 162.697 58.9692C163.299 58.9692 163.793 59.1113 164.18 59.3954C164.57 59.6757 164.862 60.062 165.055 60.5545H165.129C165.326 60.0696 165.646 59.6851 166.089 59.4011C166.536 59.1132 167.077 58.9692 167.714 58.9692C168.524 58.9692 169.165 59.2249 169.634 59.7363C170.104 60.2439 170.339 60.9863 170.339 61.9636V67.8101H169.327V61.9636C169.327 61.2742 169.151 60.7571 168.799 60.4124C168.447 60.0677 167.983 59.8954 167.407 59.8954C166.74 59.8954 166.227 60.0999 165.867 60.509C165.507 60.9181 165.327 61.437 165.327 62.0658V67.8101H164.293V61.8726C164.293 61.2817 164.129 60.8045 163.799 60.4408C163.469 60.0772 163.005 59.8954 162.407 59.8954C162.005 59.8954 161.644 59.9939 161.322 60.1908C161.004 60.3878 160.752 60.6624 160.566 61.0147C160.384 61.3632 160.293 61.7647 160.293 62.2192V67.8101H159.282Z" fill="#62748E"/>
<path d="M153.513 67.992C152.699 67.992 151.994 67.8026 151.4 67.4239C150.805 67.0413 150.345 66.5129 150.019 65.8386C149.697 65.1606 149.536 64.3803 149.536 63.4977C149.536 62.6189 149.697 61.8386 150.019 61.1568C150.345 60.4712 150.794 59.9352 151.366 59.5489C151.941 59.1587 152.606 58.9636 153.36 58.9636C153.833 58.9636 154.29 59.0507 154.729 59.225C155.169 59.3954 155.563 59.6587 155.911 60.0148C156.263 60.367 156.542 60.8121 156.746 61.35C156.951 61.8841 157.053 62.5167 157.053 63.2477V63.7477H150.235V62.8557H156.019C156.019 62.2951 155.905 61.7913 155.678 61.3443C155.455 60.8935 155.142 60.5375 154.741 60.2761C154.343 60.0148 153.883 59.8841 153.36 59.8841C152.807 59.8841 152.32 60.0318 151.9 60.3273C151.479 60.6227 151.15 61.0129 150.911 61.4977C150.676 61.9826 150.557 62.5129 150.553 63.0886V63.6227C150.553 64.3159 150.672 64.922 150.911 65.4409C151.154 65.956 151.496 66.3557 151.94 66.6398C152.383 66.9239 152.907 67.0659 153.513 67.0659C153.926 67.0659 154.288 67.0015 154.599 66.8727C154.913 66.7439 155.176 66.5716 155.388 66.3557C155.604 66.136 155.767 65.8954 155.877 65.6341L156.837 65.9466C156.705 66.314 156.487 66.653 156.184 66.9636C155.885 67.2742 155.51 67.5242 155.059 67.7136C154.612 67.8992 154.097 67.992 153.513 67.992Z" fill="#62748E"/>
<path d="M142.859 64.5147L142.847 63.1909H143.075L147.166 59.0829H148.444L144.404 63.1284L144.313 63.1454L142.859 64.5147ZM141.938 67.8102V56.1738H142.95V67.8102H141.938ZM147.376 67.8102L143.83 63.3272L144.558 62.6284L148.671 67.8102H147.376Z" fill="#62748E"/>
<path d="M135.469 68.0091C134.943 68.0091 134.462 67.9068 134.026 67.7023C133.591 67.4939 133.244 67.1947 132.986 66.8045C132.729 66.4106 132.6 65.9333 132.6 65.3727C132.6 64.9409 132.682 64.5773 132.844 64.2818C133.007 63.9864 133.238 63.7439 133.538 63.5545C133.837 63.3651 134.191 63.2155 134.6 63.1057C135.009 62.9958 135.46 62.9106 135.952 62.85C136.441 62.7894 136.854 62.7364 137.191 62.6909C137.532 62.6454 137.791 62.5735 137.969 62.475C138.147 62.3765 138.236 62.2174 138.236 61.9977V61.7932C138.236 61.1985 138.058 60.7307 137.702 60.3898C137.35 60.0451 136.843 59.8727 136.18 59.8727C135.551 59.8727 135.038 60.011 134.64 60.2875C134.246 60.564 133.969 60.8898 133.81 61.2648L132.85 60.9182C133.047 60.4409 133.32 60.0602 133.668 59.7761C134.017 59.4882 134.407 59.2818 134.839 59.1568C135.271 59.028 135.708 58.9636 136.151 58.9636C136.485 58.9636 136.831 59.0072 137.191 59.0943C137.555 59.1814 137.892 59.3329 138.202 59.5489C138.513 59.761 138.765 60.0583 138.958 60.4409C139.151 60.8197 139.248 61.3007 139.248 61.8841V67.8102H138.236V66.4295H138.174C138.053 66.6871 137.873 66.9371 137.634 67.1795C137.396 67.422 137.096 67.6208 136.736 67.7761C136.377 67.9314 135.954 68.0091 135.469 68.0091ZM135.606 67.0829C136.144 67.0829 136.61 66.9636 137.004 66.725C137.397 66.4864 137.7 66.1701 137.913 65.7761C138.129 65.3784 138.236 64.9409 138.236 64.4636V63.2023C138.161 63.2742 138.034 63.3386 137.856 63.3954C137.682 63.4523 137.479 63.5034 137.248 63.5489C137.021 63.5905 136.793 63.6265 136.566 63.6568C136.339 63.6871 136.134 63.7136 135.952 63.7364C135.46 63.797 135.039 63.8917 134.691 64.0204C134.343 64.1492 134.075 64.3273 133.89 64.5545C133.704 64.778 133.611 65.0659 133.611 65.4182C133.611 65.9485 133.801 66.3595 134.18 66.6511C134.558 66.939 135.034 67.0829 135.606 67.0829Z" fill="#62748E"/>
<path d="M130.735 59.0829V59.9635H126.57V59.0829H130.735ZM127.871 56.9919H128.888V65.5317C128.888 65.8954 128.951 66.1813 129.076 66.3897C129.201 66.5942 129.364 66.74 129.565 66.8272C129.765 66.9105 129.979 66.9522 130.207 66.9522C130.339 66.9522 130.453 66.9446 130.548 66.9294C130.642 66.9105 130.726 66.8916 130.798 66.8726L131.013 67.7874C130.915 67.8253 130.794 67.8594 130.65 67.8897C130.506 67.9238 130.328 67.9408 130.116 67.9408C129.745 67.9408 129.387 67.8594 129.042 67.6965C128.701 67.5336 128.421 67.2912 128.201 66.9692C127.981 66.6472 127.871 66.2476 127.871 65.7704V56.9919Z" fill="#62748E"/>
<path d="M123.764 59.0829C123.699 58.4352 123.413 57.92 122.906 57.5374C122.398 57.1549 121.76 56.9636 120.991 56.9636C120.449 56.9636 119.972 57.0564 119.559 57.242C119.15 57.4276 118.828 57.6852 118.593 58.0147C118.362 58.3405 118.247 58.7117 118.247 59.1284C118.247 59.4352 118.313 59.7041 118.445 59.9352C118.578 60.1662 118.756 60.3651 118.979 60.5318C119.207 60.6946 119.457 60.8348 119.729 60.9522C120.006 61.0696 120.284 61.1681 120.565 61.2477L121.792 61.5999C122.163 61.7022 122.534 61.8329 122.906 61.992C123.277 62.1511 123.616 62.3518 123.923 62.5943C124.233 62.8329 124.481 63.1265 124.667 63.4749C124.856 63.8196 124.951 64.2344 124.951 64.7193C124.951 65.3405 124.79 65.8992 124.468 66.3954C124.146 66.8916 123.684 67.2855 123.082 67.5772C122.479 67.8651 121.758 68.009 120.917 68.009C120.125 68.009 119.438 67.8784 118.854 67.617C118.271 67.3518 117.813 66.9863 117.479 66.5204C117.146 66.0545 116.959 65.5147 116.917 64.9011H118.008C118.046 65.3594 118.197 65.7477 118.462 66.0659C118.728 66.384 119.072 66.6265 119.497 66.7931C119.921 66.956 120.394 67.0374 120.917 67.0374C121.497 67.0374 122.012 66.9409 122.462 66.7477C122.917 66.5507 123.273 66.278 123.531 65.9295C123.792 65.5772 123.923 65.1681 123.923 64.7022C123.923 64.3083 123.82 63.9787 123.616 63.7136C123.411 63.4446 123.125 63.2193 122.758 63.0374C122.394 62.8556 121.972 62.6946 121.491 62.5545L120.099 62.1454C119.186 61.8727 118.478 61.4958 117.974 61.0147C117.47 60.5337 117.218 59.92 117.218 59.1738C117.218 58.5488 117.385 57.9996 117.718 57.5261C118.055 57.0488 118.51 56.6776 119.082 56.4124C119.658 56.1435 120.303 56.009 121.019 56.009C121.743 56.009 122.383 56.1416 122.94 56.4068C123.497 56.6719 123.938 57.0374 124.264 57.5034C124.593 57.9655 124.769 58.492 124.792 59.0829H123.764Z" fill="#62748E"/>
<path d="M104.705 71.0829C104.504 71.0829 104.317 71.0639 104.143 71.0261C103.968 70.9882 103.83 70.9465 103.728 70.9011L104.001 70.009C104.345 70.1151 104.652 70.153 104.921 70.1227C105.19 70.0961 105.429 69.9749 105.637 69.759C105.845 69.5469 106.031 69.2211 106.194 68.7817L106.512 67.8954L103.302 59.0829H104.398L106.989 66.4749H107.069L109.66 59.0829H110.756L107.063 69.1908C106.908 69.6113 106.717 69.9617 106.489 70.242C106.262 70.5261 105.999 70.7363 105.699 70.8727C105.404 71.0128 105.073 71.0829 104.705 71.0829Z" fill="#62748E"/>
<path d="M94.7109 67.8102V56.1738H95.728V60.7477H95.8189C95.9325 60.4863 96.0954 60.2174 96.3075 59.9409C96.5234 59.6644 96.8056 59.4333 97.1541 59.2477C97.5064 59.0583 97.9496 58.9636 98.4837 58.9636C99.1996 58.9636 99.8284 59.153 100.37 59.5318C100.912 59.9068 101.334 60.4333 101.637 61.1113C101.94 61.7856 102.092 62.5716 102.092 63.4693C102.092 64.3708 101.94 65.1606 101.637 65.8386C101.338 66.5166 100.917 67.045 100.376 67.4238C99.8378 67.8026 99.2128 67.992 98.5007 67.992C97.9704 67.992 97.5272 67.8973 97.1712 67.7079C96.8189 67.5185 96.5348 67.2856 96.3189 67.0091C96.103 66.7288 95.9363 66.456 95.8189 66.1909H95.6939V67.8102H94.7109ZM95.7109 63.4522C95.7109 64.1568 95.8151 64.7818 96.0234 65.3272C96.2356 65.8689 96.5386 66.295 96.9325 66.6056C97.3303 66.9125 97.8113 67.0659 98.3757 67.0659C98.9553 67.0659 99.4458 66.9068 99.8473 66.5886C100.249 66.2666 100.554 65.8329 100.762 65.2875C100.97 64.742 101.075 64.1303 101.075 63.4522C101.075 62.7818 100.97 62.1776 100.762 61.6397C100.558 61.1019 100.254 60.6757 99.853 60.3613C99.4515 60.0431 98.959 59.8841 98.3757 59.8841C97.8075 59.8841 97.3246 60.0375 96.9268 60.3443C96.5329 60.6473 96.2318 61.0678 96.0234 61.6056C95.8151 62.1397 95.7109 62.7553 95.7109 63.4522Z" fill="#62748E"/>
</g>
<defs>
<filter id="filter0_d_27_1159" x="74.7109" y="2.6283" width="202.73" height="87.4546" filterUnits="userSpaceOnUse" color-interpolation-filters="sRGB">
<feFlood flood-opacity="0" result="BackgroundImageFix"/>
<feColorMatrix in="SourceAlpha" type="matrix" values="0 0 0 0 0 0 0 0 0 0 0 0 0 0 0 0 0 0 127 0" result="hardAlpha"/>
<feOffset dy="-1"/>
<feGaussianBlur stdDeviation="10"/>
<feComposite in2="hardAlpha" operator="out"/>
<feColorMatrix type="matrix" values="0 0 0 0 0.603922 0 0 0 0 0.901961 0 0 0 0 0 0 0 0 0.36 0"/>
<feBlend mode="normal" in2="BackgroundImageFix" result="effect1_dropShadow_27_1159"/>
<feBlend mode="normal" in="SourceGraphic" in2="effect1_dropShadow_27_1159" result="shape"/>
</filter>
</defs>
</svg>
