<svg width="354" height="182" viewBox="0 0 354 182" fill="none" xmlns="http://www.w3.org/2000/svg">
<path d="M173.407 91.5934L166.238 85.1314C166.028 84.9417 165.908 84.6718 165.908 84.3886V76.571C165.908 76.0187 165.46 75.571 164.908 75.571H158.742C158.19 75.571 157.742 76.0187 157.742 76.571V80.5604C157.742 80.8323 157.853 81.0925 158.049 81.2811L174.769 97.3634C174.965 97.552 175.076 97.8122 175.076 98.0841V133.392C175.076 134.341 173.878 134.757 173.291 134.011L148.216 102.206C148.077 102.029 148.001 101.811 148.001 101.587V90.7267C148.001 89.8479 149.053 89.3965 149.69 90.0021L157.432 97.3629C157.63 97.5516 157.742 97.8136 157.742 98.0875V98.6027C157.742 98.8221 157.815 99.0355 157.948 99.2098L164.113 107.28C164.694 108.04 165.908 107.629 165.908 106.672V102.349C165.908 102.083 165.802 101.828 165.613 101.64L148.296 84.4142C148.107 84.2265 148.001 83.9714 148.001 83.7052V67.166C148.001 66.6137 148.449 66.166 149.001 66.166H174.076C174.629 66.166 175.076 66.6137 175.076 67.166V90.8507C175.076 91.7168 174.05 92.1734 173.407 91.5934Z" fill="#155DFC"/>
<path d="M177.926 67.166V133.879C177.926 134.767 178.998 135.215 179.63 134.589L187.424 126.873V84.4066L191.393 88.2542L195.787 84.4066V111.734C195.787 112.683 196.985 113.099 197.573 112.354L205.001 102.932V67.166C205.001 66.6137 204.554 66.166 204.001 66.166H199.363C199.073 66.166 198.797 66.2923 198.607 66.5121L191.393 74.8588L184.179 66.5121C183.989 66.2923 183.713 66.166 183.422 66.166H178.926C178.374 66.166 177.926 66.6137 177.926 67.166Z" fill="#002577"/>
<path d="M176.997 0.5C178.451 0.5 179.672 1.00257 180.689 2.0166C181.704 3.02961 182.208 4.2479 182.208 5.7002C182.208 6.46127 182.056 7.16317 181.753 7.81152L181.615 8.08594C181.214 8.82084 180.692 9.40837 180.048 9.85645L179.627 10.1494L179.93 10.5625L193.138 28.5869L193.372 28.9062L193.737 28.752L207.446 22.9355L207.887 22.748L207.718 22.2988C207.616 22.0267 207.524 21.7221 207.446 21.3848L207.445 21.3838C207.37 21.0698 207.332 20.7337 207.332 20.375C207.332 18.9164 207.826 17.6949 208.816 16.6807C209.802 15.6702 211.006 15.1671 212.46 15.167C213.913 15.167 215.133 15.6702 216.149 16.6846C217.163 17.6997 217.666 18.9201 217.666 20.375C217.666 21.7099 217.225 22.8474 216.332 23.8105L216.148 24.001C215.132 25.0022 213.909 25.5 212.449 25.5C212.409 25.5 212.363 25.4969 212.31 25.4902L212.132 25.458C211.939 25.414 211.746 25.3916 211.553 25.3916H211.132L211.06 25.8066L205.245 59.334H148.754L142.925 25.8057L142.838 25.3057L142.339 25.4004C142.207 25.4254 142.056 25.4494 141.884 25.4707C141.719 25.4912 141.578 25.5 141.458 25.5C140.004 25.5 138.8 25.0034 137.814 24.0078C136.825 23.0088 136.333 21.8076 136.333 20.375C136.333 18.9165 136.826 17.6949 137.816 16.6807C138.803 15.6701 140.007 15.167 141.461 15.167C142.915 15.167 144.134 15.6701 145.149 16.6846C146.164 17.6997 146.667 18.9202 146.667 20.375C146.667 20.7504 146.636 21.0929 146.575 21.4033V21.4043C146.517 21.7098 146.424 21.9948 146.298 22.2607L146.075 22.7314L146.555 22.9355L160.263 28.752L160.628 28.9062L160.862 28.5869L174.07 10.5625L174.372 10.1494L173.952 9.85645C173.31 9.40909 172.787 8.81913 172.386 8.07715C171.99 7.34461 171.792 6.55722 171.792 5.70801C171.792 4.2538 172.295 3.03377 173.31 2.01855C174.324 1.0036 175.543 0.500098 176.997 0.5ZM176.596 16.3975L162.502 35.7363L149.991 30.5293L149.143 30.1758L149.308 31.0801L153.374 53.4229L153.449 53.834H200.551L200.625 53.4229L204.693 31.0801L204.857 30.1758L204.008 30.5293L191.496 35.7363L177.404 16.3975L177 15.8428L176.596 16.3975Z" stroke="#0F172B"/>
<path d="M61.648 181.848C60.2267 181.848 58.8227 181.657 57.436 181.276C56.084 180.895 54.836 180.375 53.692 179.716C52.548 179.023 51.56 178.191 50.728 177.22L54.784 173.112C55.6507 174.083 56.656 174.811 57.8 175.296C58.944 175.781 60.2093 176.024 61.596 176.024C62.7053 176.024 63.5373 175.868 64.092 175.556C64.6813 175.244 64.976 174.776 64.976 174.152C64.976 173.459 64.664 172.921 64.04 172.54C63.4507 172.159 62.6707 171.847 61.7 171.604C60.7293 171.327 59.7067 171.032 58.632 170.72C57.592 170.373 56.5867 169.94 55.616 169.42C54.6453 168.865 53.848 168.12 53.224 167.184C52.6347 166.213 52.34 164.965 52.34 163.44C52.34 161.845 52.7213 160.459 53.484 159.28C54.2813 158.101 55.408 157.183 56.864 156.524C58.32 155.865 60.036 155.536 62.012 155.536C64.092 155.536 65.964 155.9 67.628 156.628C69.3267 157.356 70.7307 158.448 71.84 159.904L67.732 164.012C66.9693 163.076 66.1027 162.4 65.132 161.984C64.196 161.568 63.1733 161.36 62.064 161.36C61.0587 161.36 60.2787 161.516 59.724 161.828C59.204 162.14 58.944 162.573 58.944 163.128C58.944 163.752 59.2387 164.237 59.828 164.584C60.452 164.931 61.2493 165.243 62.22 165.52C63.1907 165.763 64.196 166.057 65.236 166.404C66.3107 166.716 67.316 167.167 68.252 167.756C69.2227 168.345 70.0027 169.125 70.592 170.096C71.216 171.067 71.528 172.315 71.528 173.84C71.528 176.301 70.644 178.26 68.876 179.716C67.108 181.137 64.6987 181.848 61.648 181.848ZM79.8135 181.276V145.708H86.6255V181.276H79.8135ZM73.9375 162.14V156.16H92.5015V162.14H73.9375ZM106.227 181.796C103.939 181.796 101.876 181.224 100.039 180.08C98.2017 178.936 96.763 177.376 95.723 175.4C94.683 173.424 94.163 171.205 94.163 168.744C94.163 166.248 94.683 164.012 95.723 162.036C96.763 160.06 98.2017 158.5 100.039 157.356C101.876 156.212 103.939 155.64 106.227 155.64C108.03 155.64 109.642 156.004 111.063 156.732C112.484 157.46 113.611 158.483 114.443 159.8C115.31 161.083 115.778 162.539 115.847 164.168V173.216C115.778 174.88 115.31 176.353 114.443 177.636C113.611 178.919 112.484 179.941 111.063 180.704C109.642 181.432 108.03 181.796 106.227 181.796ZM107.475 175.504C109.382 175.504 110.924 174.88 112.103 173.632C113.282 172.349 113.871 170.703 113.871 168.692C113.871 167.375 113.594 166.213 113.039 165.208C112.519 164.168 111.774 163.371 110.803 162.816C109.867 162.227 108.758 161.932 107.475 161.932C106.227 161.932 105.118 162.227 104.147 162.816C103.211 163.371 102.466 164.168 101.911 165.208C101.391 166.213 101.131 167.375 101.131 168.692C101.131 170.044 101.391 171.24 101.911 172.28C102.466 173.285 103.211 174.083 104.147 174.672C105.118 175.227 106.227 175.504 107.475 175.504ZM113.507 181.276V174.516L114.599 168.38L113.507 162.348V156.16H120.267V181.276H113.507ZM142.309 181.276L132.585 168.328L142.257 156.16H150.109L138.773 169.888L139.033 166.56L150.629 181.276H142.309ZM126.293 181.276V143.68H133.105V181.276H126.293ZM164.61 181.796C161.975 181.796 159.635 181.241 157.59 180.132C155.545 178.988 153.915 177.428 152.702 175.452C151.523 173.476 150.934 171.223 150.934 168.692C150.934 166.196 151.506 163.977 152.65 162.036C153.829 160.06 155.423 158.5 157.434 157.356C159.445 156.177 161.681 155.588 164.142 155.588C166.569 155.588 168.701 156.143 170.538 157.252C172.41 158.327 173.866 159.817 174.906 161.724C175.981 163.596 176.518 165.728 176.518 168.12C176.518 168.571 176.483 169.039 176.414 169.524C176.379 169.975 176.293 170.495 176.154 171.084L155.042 171.136V166.04L172.982 165.988L170.226 168.12C170.157 166.629 169.879 165.381 169.394 164.376C168.943 163.371 168.267 162.608 167.366 162.088C166.499 161.533 165.425 161.256 164.142 161.256C162.79 161.256 161.611 161.568 160.606 162.192C159.601 162.781 158.821 163.631 158.266 164.74C157.746 165.815 157.486 167.097 157.486 168.588C157.486 170.113 157.763 171.448 158.318 172.592C158.907 173.701 159.739 174.568 160.814 175.192C161.889 175.781 163.137 176.076 164.558 176.076C165.841 176.076 167.002 175.868 168.042 175.452C169.082 175.001 169.983 174.343 170.746 173.476L174.75 177.48C173.537 178.901 172.046 179.976 170.278 180.704C168.545 181.432 166.655 181.796 164.61 181.796Z" fill="#002577"/>
<path d="M180.731 181.276V156.16H187.543V181.276H180.731ZM197.111 181.276V166.456C197.111 165 196.643 163.873 195.707 163.076C194.806 162.244 193.679 161.828 192.327 161.828C191.426 161.828 190.611 162.019 189.883 162.4C189.155 162.747 188.583 163.267 188.167 163.96C187.751 164.653 187.543 165.485 187.543 166.456L184.891 165.156C184.891 163.215 185.307 161.533 186.139 160.112C187.006 158.691 188.167 157.599 189.623 156.836C191.079 156.039 192.726 155.64 194.563 155.64C196.296 155.64 197.874 156.039 199.295 156.836C200.716 157.599 201.843 158.691 202.675 160.112C203.507 161.499 203.923 163.18 203.923 165.156V181.276H197.111ZM213.491 181.276V166.456C213.491 165 213.023 163.873 212.087 163.076C211.186 162.244 210.059 161.828 208.707 161.828C207.84 161.828 207.026 162.019 206.263 162.4C205.535 162.747 204.963 163.267 204.547 163.96C204.131 164.653 203.923 165.485 203.923 166.456L200.023 165.52C200.162 163.509 200.699 161.776 201.635 160.32C202.571 158.829 203.802 157.685 205.327 156.888C206.852 156.056 208.551 155.64 210.423 155.64C212.295 155.64 213.976 156.039 215.467 156.836C216.958 157.599 218.136 158.708 219.003 160.164C219.87 161.62 220.303 163.353 220.303 165.364V181.276H213.491ZM236.173 181.796C233.85 181.796 231.77 181.224 229.933 180.08C228.13 178.936 226.691 177.376 225.617 175.4C224.577 173.424 224.057 171.171 224.057 168.64C224.057 166.109 224.577 163.856 225.617 161.88C226.691 159.904 228.13 158.344 229.933 157.2C231.77 156.056 233.85 155.484 236.173 155.484C237.871 155.484 239.397 155.813 240.749 156.472C242.135 157.131 243.262 158.049 244.129 159.228C244.995 160.372 245.481 161.689 245.585 163.18V174.1C245.481 175.591 244.995 176.925 244.129 178.104C243.297 179.248 242.187 180.149 240.801 180.808C239.414 181.467 237.871 181.796 236.173 181.796ZM237.785 174.62C239.483 174.62 240.853 174.065 241.893 172.956C242.933 171.812 243.453 170.373 243.453 168.64C243.453 167.461 243.21 166.421 242.725 165.52C242.274 164.619 241.615 163.925 240.749 163.44C239.917 162.92 238.946 162.66 237.837 162.66C236.727 162.66 235.739 162.92 234.873 163.44C234.041 163.925 233.365 164.619 232.845 165.52C232.359 166.421 232.117 167.461 232.117 168.64C232.117 169.784 232.359 170.807 232.845 171.708C233.33 172.609 234.006 173.32 234.873 173.84C235.739 174.36 236.71 174.62 237.785 174.62ZM243.141 181.276V174.464L244.337 168.328L243.141 162.192V156.004H250.941V181.276H243.141ZM260.13 181.276V145.552H268.086V181.276H260.13ZM254.41 162.764V156.004H273.806V162.764H254.41ZM289.284 181.848C286.545 181.848 284.101 181.293 281.952 180.184C279.837 179.04 278.173 177.463 276.96 175.452C275.747 173.441 275.14 171.171 275.14 168.64C275.14 166.109 275.729 163.856 276.908 161.88C278.121 159.869 279.751 158.292 281.796 157.148C283.841 156.004 286.147 155.432 288.712 155.432C291.208 155.432 293.409 155.969 295.316 157.044C297.223 158.119 298.713 159.609 299.788 161.516C300.897 163.423 301.452 165.607 301.452 168.068C301.452 168.519 301.417 169.004 301.348 169.524C301.313 170.009 301.227 170.581 301.088 171.24L279.3 171.292V165.832L297.708 165.78L294.276 168.068C294.241 166.612 294.016 165.416 293.6 164.48C293.184 163.509 292.56 162.781 291.728 162.296C290.931 161.776 289.943 161.516 288.764 161.516C287.516 161.516 286.424 161.811 285.488 162.4C284.587 162.955 283.876 163.752 283.356 164.792C282.871 165.832 282.628 167.097 282.628 168.588C282.628 170.079 282.888 171.361 283.408 172.436C283.963 173.476 284.725 174.291 285.696 174.88C286.701 175.435 287.88 175.712 289.232 175.712C290.48 175.712 291.607 175.504 292.612 175.088C293.617 174.637 294.501 173.979 295.264 173.112L299.632 177.48C298.384 178.936 296.876 180.028 295.108 180.756C293.34 181.484 291.399 181.848 289.284 181.848Z" fill="#155DFC"/>
</svg>
