<svg width="228" height="42" viewBox="0 0 228 42" fill="none" xmlns="http://www.w3.org/2000/svg">
<path d="M30.5822 5.5731C31.6405 3.31579 34.8305 3.25929 35.9681 5.47772L38.2109 9.85189L24.8026 37.9049L15.4248 37.9049L30.5822 5.5731Z" fill="white"/>
<path d="M46.7059 5.60139C47.7656 3.346 50.9537 3.29087 52.0907 5.50827L54.3365 9.88816L41.015 37.8601L31.5499 37.8601L46.7059 5.60139Z" fill="white"/>
<path d="M57.842 16.1256L62.1429 23.9741C62.4518 24.5379 62.4709 25.2159 62.1941 25.7963L56.4398 37.8601L48.377 37.8601L57.842 16.1256Z" fill="white"/>
<path d="M31.1867 5.47501L33.1589 4.46592C34.1246 3.97179 35.3082 4.33763 35.8267 5.29051L43.6199 19.6136L40.0658 21.5836L31.1867 5.47501Z" fill="white"/>
<path d="M47.3122 5.47501L49.2844 4.46592C50.2501 3.97179 51.4337 4.33763 51.9522 5.29051L59.7454 19.6136L56.1913 21.5836L47.3122 5.47501Z" fill="white"/>
<path d="M24.5468 2.84262C25.4148 2.84468 25.8682 3.87585 25.2829 4.51688L23.7312 6.21635C23.3523 6.63137 22.8162 6.86781 22.2542 6.86781L8.41303 6.86781V2.80426L24.5468 2.84262Z" fill="white"/>
<path d="M18.5796 33.697L18.4133 37.86H2.1495C1.29926 37.86 0.836918 36.8662 1.38458 36.2158L2.90629 34.4088C3.2863 33.9575 3.84617 33.697 4.43613 33.697L18.5796 33.697Z" fill="white"/>
<path d="M8.41326 2.80432L3.6825 11.1419C3.36494 11.7016 3.33607 12.3799 3.60492 12.9645L15.0735 37.9041L24.8086 37.9041L8.41326 2.80432Z" fill="#DADADA"/>
<path d="M69.032 9.8H77.672V14.12H70.76L70.652 14.336L76.412 24.848C77.588 26.96 78.176 28.568 78.176 29.672C78.176 32.096 77.372 33.872 75.764 35H66.224V30.824H73.676L73.784 30.608L67.304 18.98C66.368 17.3 65.9 15.932 65.9 14.876C65.9 12.38 66.944 10.688 69.032 9.8ZM86.553 14.12H81.117V9.8H96.885V14.12H91.449V35H86.553V14.12ZM109.146 35L108.39 31.004H102.702L101.946 35H97.0498L101.91 9.8H109.362L113.97 35H109.146ZM105.474 14.48L104.07 22.868L103.278 27.152H107.778L106.95 22.868L105.546 14.48H105.474ZM117.866 35V9.8H122.798V20.42H122.978L127.478 9.8H132.554L127.298 21.824L132.806 35H127.334L123.05 23.984H122.798V35H117.866ZM136.33 35V9.8H149.254V14.12H141.262V20.132H148.39V24.308H141.262V30.824H149.398V35H136.33Z" fill="white"/>
<path d="M163.166 23.48H163.022H163.166L165.074 15.596L166.622 9.8H171.122L172.742 35H168.026L167.342 21.248H167.162L164.57 31.4H161.618L159.026 21.248H158.846L158.162 35H153.446L155.066 9.8H159.566L161.114 15.596L163.022 23.48H163.166ZM188.17 35L187.414 31.004H181.726L180.97 35H176.074L180.934 9.8H188.386L192.994 35H188.17ZM184.498 14.48L183.094 22.868L182.302 27.152H186.802L185.974 22.868L184.57 14.48H184.498ZM198.779 14.12H193.343V9.8H209.111V14.12H203.675V35H198.779V14.12ZM212.999 35V9.8H225.923V14.12H217.931V20.132H225.059V24.308H217.931V30.824H226.067V35H212.999Z" fill="#DADADA"/>
</svg>
