<svg width="354" height="42" viewBox="0 0 354 42" fill="none" xmlns="http://www.w3.org/2000/svg">
<path d="M93.5822 5.5731C94.6405 3.31579 97.8305 3.25929 98.9681 5.47772L101.211 9.85189L87.8026 37.9049L78.4248 37.9049L93.5822 5.5731Z" fill="#6A94F1"/>
<path d="M109.706 5.60138C110.766 3.34599 113.954 3.29086 115.091 5.50826L117.337 9.88815L104.015 37.8601L94.5499 37.8601L109.706 5.60138Z" fill="#6A94F1"/>
<path d="M120.842 16.1256L125.143 23.9741C125.452 24.538 125.471 25.216 125.194 25.7963L119.44 37.8601L111.377 37.8601L120.842 16.1256Z" fill="#6A94F1"/>
<path d="M94.1867 5.47504L96.1589 4.46595C97.1246 3.97182 98.3082 4.33766 98.8267 5.29054L106.62 19.6136L103.066 21.5837L94.1867 5.47504Z" fill="#6A94F1"/>
<path d="M110.312 5.47504L112.284 4.46595C113.25 3.97182 114.434 4.33766 114.952 5.29054L122.745 19.6136L119.191 21.5837L110.312 5.47504Z" fill="#6A94F1"/>
<path d="M87.5468 2.84259C88.4148 2.84465 88.8682 3.87582 88.2829 4.51685L86.7312 6.21632C86.3523 6.63134 85.8162 6.86778 85.2542 6.86778L71.413 6.86778V2.80423L87.5468 2.84259Z" fill="#193CB8"/>
<path d="M81.5796 33.697L81.4133 37.86H65.1495C64.2993 37.86 63.8369 36.8662 64.3846 36.2158L65.9063 34.4088C66.2863 33.9575 66.8462 33.697 67.4361 33.697L81.5796 33.697Z" fill="#193CB8"/>
<path d="M71.4133 2.80425L66.6825 11.1419C66.3649 11.7016 66.3361 12.3798 66.6049 12.9645L78.0735 37.904L87.8086 37.904L71.4133 2.80425Z" fill="#155DFC"/>
<path d="M132.032 9.8H140.672V14.12H133.76L133.652 14.336L139.412 24.848C140.588 26.96 141.176 28.568 141.176 29.672C141.176 32.096 140.372 33.872 138.764 35H129.224V30.824H136.676L136.784 30.608L130.304 18.98C129.368 17.3 128.9 15.932 128.9 14.876C128.9 12.38 129.944 10.688 132.032 9.8ZM149.553 14.12H144.117V9.8H159.885V14.12H154.449V35H149.553V14.12ZM172.146 35L171.39 31.004H165.702L164.946 35H160.05L164.91 9.8H172.362L176.97 35H172.146ZM168.474 14.48L167.07 22.868L166.278 27.152H170.778L169.95 22.868L168.546 14.48H168.474ZM180.866 35V9.8H185.798V20.42H185.978L190.478 9.8H195.554L190.298 21.824L195.806 35H190.334L186.05 23.984H185.798V35H180.866ZM199.33 35V9.8H212.254V14.12H204.262V20.132H211.39V24.308H204.262V30.824H212.398V35H199.33ZM226.166 23.48H226.022H226.166L228.074 15.596L229.622 9.8H234.122L235.742 35H231.026L230.342 21.248H230.162L227.57 31.4H224.618L222.026 21.248H221.846L221.162 35H216.446L218.066 9.8H222.566L224.114 15.596L226.022 23.48H226.166ZM251.17 35L250.414 31.004H244.726L243.97 35H239.074L243.934 9.8H251.386L255.994 35H251.17ZM247.498 14.48L246.094 22.868L245.302 27.152H249.802L248.974 22.868L247.57 14.48H247.498ZM261.779 14.12H256.343V9.8H272.111V14.12H266.675V35H261.779V14.12ZM275.999 35V9.8H288.923V14.12H280.931V20.132H288.059V24.308H280.931V30.824H289.067V35H275.999Z" fill="#155DFC"/>
</svg>
