<svg width="254" height="201" viewBox="0 0 254 201" fill="none" xmlns="http://www.w3.org/2000/svg">
<path d="M11.648 181.848C10.2267 181.848 8.82267 181.657 7.436 181.276C6.084 180.895 4.836 180.375 3.692 179.716C2.548 179.023 1.56 178.191 0.728 177.22L4.784 173.112C5.65067 174.083 6.656 174.811 7.8 175.296C8.944 175.781 10.2093 176.024 11.596 176.024C12.7053 176.024 13.5373 175.868 14.092 175.556C14.6813 175.244 14.976 174.776 14.976 174.152C14.976 173.459 14.664 172.921 14.04 172.54C13.4507 172.159 12.6707 171.847 11.7 171.604C10.7293 171.327 9.70667 171.032 8.632 170.72C7.592 170.373 6.58667 169.94 5.616 169.42C4.64533 168.865 3.848 168.12 3.224 167.184C2.63467 166.213 2.34 164.965 2.34 163.44C2.34 161.845 2.72133 160.459 3.484 159.28C4.28133 158.101 5.408 157.183 6.864 156.524C8.32 155.865 10.036 155.536 12.012 155.536C14.092 155.536 15.964 155.9 17.628 156.628C19.3267 157.356 20.7307 158.448 21.84 159.904L17.732 164.012C16.9693 163.076 16.1027 162.4 15.132 161.984C14.196 161.568 13.1733 161.36 12.064 161.36C11.0587 161.36 10.2787 161.516 9.724 161.828C9.204 162.14 8.944 162.573 8.944 163.128C8.944 163.752 9.23867 164.237 9.828 164.584C10.452 164.931 11.2493 165.243 12.22 165.52C13.1907 165.763 14.196 166.057 15.236 166.404C16.3107 166.716 17.316 167.167 18.252 167.756C19.2227 168.345 20.0027 169.125 20.592 170.096C21.216 171.067 21.528 172.315 21.528 173.84C21.528 176.301 20.644 178.26 18.876 179.716C17.108 181.137 14.6987 181.848 11.648 181.848ZM29.8135 181.276V145.708H36.6255V181.276H29.8135ZM23.9375 162.14V156.16H42.5015V162.14H23.9375ZM56.227 181.796C53.939 181.796 51.8764 181.224 50.039 180.08C48.2017 178.936 46.763 177.376 45.723 175.4C44.683 173.424 44.163 171.205 44.163 168.744C44.163 166.248 44.683 164.012 45.723 162.036C46.763 160.06 48.2017 158.5 50.039 157.356C51.8764 156.212 53.939 155.64 56.227 155.64C58.0297 155.64 59.6417 156.004 61.063 156.732C62.4844 157.46 63.611 158.483 64.443 159.8C65.3097 161.083 65.7777 162.539 65.847 164.168V173.216C65.7777 174.88 65.3097 176.353 64.443 177.636C63.611 178.919 62.4844 179.941 61.063 180.704C59.6417 181.432 58.0297 181.796 56.227 181.796ZM57.475 175.504C59.3817 175.504 60.9244 174.88 62.103 173.632C63.2817 172.349 63.871 170.703 63.871 168.692C63.871 167.375 63.5937 166.213 63.039 165.208C62.519 164.168 61.7737 163.371 60.803 162.816C59.867 162.227 58.7577 161.932 57.475 161.932C56.227 161.932 55.1177 162.227 54.147 162.816C53.211 163.371 52.4657 164.168 51.911 165.208C51.391 166.213 51.131 167.375 51.131 168.692C51.131 170.044 51.391 171.24 51.911 172.28C52.4657 173.285 53.211 174.083 54.147 174.672C55.1177 175.227 56.227 175.504 57.475 175.504ZM63.507 181.276V174.516L64.599 168.38L63.507 162.348V156.16H70.267V181.276H63.507ZM92.3093 181.276L82.5853 168.328L92.2573 156.16H100.109L88.7733 169.888L89.0333 166.56L100.629 181.276H92.3093ZM76.2933 181.276V143.68H83.1053V181.276H76.2933ZM114.61 181.796C111.975 181.796 109.635 181.241 107.59 180.132C105.545 178.988 103.915 177.428 102.702 175.452C101.523 173.476 100.934 171.223 100.934 168.692C100.934 166.196 101.506 163.977 102.65 162.036C103.829 160.06 105.423 158.5 107.434 157.356C109.445 156.177 111.681 155.588 114.142 155.588C116.569 155.588 118.701 156.143 120.538 157.252C122.41 158.327 123.866 159.817 124.906 161.724C125.981 163.596 126.518 165.728 126.518 168.12C126.518 168.571 126.483 169.039 126.414 169.524C126.379 169.975 126.293 170.495 126.154 171.084L105.042 171.136V166.04L122.982 165.988L120.226 168.12C120.157 166.629 119.879 165.381 119.394 164.376C118.943 163.371 118.267 162.608 117.366 162.088C116.499 161.533 115.425 161.256 114.142 161.256C112.79 161.256 111.611 161.568 110.606 162.192C109.601 162.781 108.821 163.631 108.266 164.74C107.746 165.815 107.486 167.097 107.486 168.588C107.486 170.113 107.763 171.448 108.318 172.592C108.907 173.701 109.739 174.568 110.814 175.192C111.889 175.781 113.137 176.076 114.558 176.076C115.841 176.076 117.002 175.868 118.042 175.452C119.082 175.001 119.983 174.343 120.746 173.476L124.75 177.48C123.537 178.901 122.046 179.976 120.278 180.704C118.545 181.432 116.655 181.796 114.61 181.796ZM130.731 181.276V156.16H137.543V181.276H130.731ZM147.111 181.276V166.456C147.111 165 146.643 163.873 145.707 163.076C144.806 162.244 143.679 161.828 142.327 161.828C141.426 161.828 140.611 162.019 139.883 162.4C139.155 162.747 138.583 163.267 138.167 163.96C137.751 164.653 137.543 165.485 137.543 166.456L134.891 165.156C134.891 163.215 135.307 161.533 136.139 160.112C137.006 158.691 138.167 157.599 139.623 156.836C141.079 156.039 142.726 155.64 144.563 155.64C146.296 155.64 147.874 156.039 149.295 156.836C150.716 157.599 151.843 158.691 152.675 160.112C153.507 161.499 153.923 163.18 153.923 165.156V181.276H147.111ZM163.491 181.276V166.456C163.491 165 163.023 163.873 162.087 163.076C161.186 162.244 160.059 161.828 158.707 161.828C157.84 161.828 157.026 162.019 156.263 162.4C155.535 162.747 154.963 163.267 154.547 163.96C154.131 164.653 153.923 165.485 153.923 166.456L150.023 165.52C150.162 163.509 150.699 161.776 151.635 160.32C152.571 158.829 153.802 157.685 155.327 156.888C156.852 156.056 158.551 155.64 160.423 155.64C162.295 155.64 163.976 156.039 165.467 156.836C166.958 157.599 168.136 158.708 169.003 160.164C169.87 161.62 170.303 163.353 170.303 165.364V181.276H163.491ZM186.173 181.796C183.85 181.796 181.77 181.224 179.933 180.08C178.13 178.936 176.691 177.376 175.617 175.4C174.577 173.424 174.057 171.171 174.057 168.64C174.057 166.109 174.577 163.856 175.617 161.88C176.691 159.904 178.13 158.344 179.933 157.2C181.77 156.056 183.85 155.484 186.173 155.484C187.871 155.484 189.397 155.813 190.749 156.472C192.135 157.131 193.262 158.049 194.129 159.228C194.995 160.372 195.481 161.689 195.585 163.18V174.1C195.481 175.591 194.995 176.925 194.129 178.104C193.297 179.248 192.187 180.149 190.801 180.808C189.414 181.467 187.871 181.796 186.173 181.796ZM187.785 174.62C189.483 174.62 190.853 174.065 191.893 172.956C192.933 171.812 193.453 170.373 193.453 168.64C193.453 167.461 193.21 166.421 192.725 165.52C192.274 164.619 191.615 163.925 190.749 163.44C189.917 162.92 188.946 162.66 187.837 162.66C186.727 162.66 185.739 162.92 184.873 163.44C184.041 163.925 183.365 164.619 182.845 165.52C182.359 166.421 182.117 167.461 182.117 168.64C182.117 169.784 182.359 170.807 182.845 171.708C183.33 172.609 184.006 173.32 184.873 173.84C185.739 174.36 186.71 174.62 187.785 174.62ZM193.141 181.276V174.464L194.337 168.328L193.141 162.192V156.004H200.941V181.276H193.141ZM210.13 181.276V145.552H218.086V181.276H210.13ZM204.41 162.764V156.004H223.806V162.764H204.41ZM239.284 181.848C236.545 181.848 234.101 181.293 231.952 180.184C229.837 179.04 228.173 177.463 226.96 175.452C225.747 173.441 225.14 171.171 225.14 168.64C225.14 166.109 225.729 163.856 226.908 161.88C228.121 159.869 229.751 158.292 231.796 157.148C233.841 156.004 236.147 155.432 238.712 155.432C241.208 155.432 243.409 155.969 245.316 157.044C247.223 158.119 248.713 159.609 249.788 161.516C250.897 163.423 251.452 165.607 251.452 168.068C251.452 168.519 251.417 169.004 251.348 169.524C251.313 170.009 251.227 170.581 251.088 171.24L229.3 171.292V165.832L247.708 165.78L244.276 168.068C244.241 166.612 244.016 165.416 243.6 164.48C243.184 163.509 242.56 162.781 241.728 162.296C240.931 161.776 239.943 161.516 238.764 161.516C237.516 161.516 236.424 161.811 235.488 162.4C234.587 162.955 233.876 163.752 233.356 164.792C232.871 165.832 232.628 167.097 232.628 168.588C232.628 170.079 232.888 171.361 233.408 172.436C233.963 173.476 234.725 174.291 235.696 174.88C236.701 175.435 237.88 175.712 239.232 175.712C240.48 175.712 241.607 175.504 242.612 175.088C243.617 174.637 244.501 173.979 245.264 173.112L249.632 177.48C248.384 178.936 246.876 180.028 245.108 180.756C243.34 181.484 241.399 181.848 239.284 181.848Z" fill="white"/>
<path d="M3.5 194.276H28.5" stroke="#49E6BA" stroke-width="2" stroke-linecap="round"/>
<path d="M34.964 200.276V189.572H36.148V200.276H34.964ZM31.092 190.34V189.268H40.02V190.34H31.092ZM42.9294 195.348V194.356H46.1294C46.8547 194.356 47.4094 194.175 47.7934 193.812C48.1774 193.439 48.3694 192.943 48.3694 192.324C48.3694 191.727 48.1774 191.241 47.7934 190.868C47.4094 190.484 46.8547 190.292 46.1294 190.292H42.9294V189.268H46.1294C46.844 189.268 47.4574 189.401 47.9694 189.668C48.4814 189.924 48.8707 190.281 49.1374 190.74C49.4147 191.199 49.5534 191.721 49.5534 192.308C49.5534 192.916 49.4147 193.449 49.1374 193.908C48.8707 194.367 48.4814 194.724 47.9694 194.98C47.4574 195.225 46.844 195.348 46.1294 195.348H42.9294ZM42.1774 200.276V189.268H43.3454V200.276H42.1774ZM48.8334 200.276L44.7054 195.188L45.8414 194.82L50.3374 200.276H48.8334ZM51.0682 200.276L55.5802 189.268H56.4602L60.9243 200.276H59.6602L55.7723 190.548H56.2362L52.3162 200.276H51.0682ZM53.1322 197.412V196.372H58.8923V197.412H53.1322ZM67.2237 200.436C66.4344 200.436 65.6984 200.292 65.0157 200.004C64.3437 199.716 63.7571 199.311 63.2557 198.788C62.7544 198.265 62.3651 197.663 62.0877 196.98C61.8211 196.287 61.6877 195.545 61.6877 194.756C61.6877 193.967 61.8211 193.231 62.0877 192.548C62.3651 191.855 62.7491 191.252 63.2397 190.74C63.7411 190.228 64.3277 189.828 64.9997 189.54C65.6717 189.252 66.3971 189.108 67.1757 189.108C68.0184 189.108 68.7704 189.257 69.4318 189.556C70.1037 189.855 70.6904 190.265 71.1917 190.788L70.3918 191.588C70.0078 191.161 69.5438 190.831 68.9998 190.596C68.4557 190.351 67.8477 190.228 67.1757 190.228C66.5571 190.228 65.9864 190.34 65.4637 190.564C64.9517 190.788 64.4984 191.108 64.1037 191.524C63.7197 191.929 63.4211 192.409 63.2077 192.964C63.0051 193.508 62.9037 194.105 62.9037 194.756C62.9037 195.407 63.0104 196.009 63.2237 196.564C63.4371 197.119 63.7357 197.604 64.1197 198.02C64.5037 198.425 64.9571 198.74 65.4797 198.964C66.0024 199.188 66.5731 199.3 67.1918 199.3C67.8957 199.3 68.5197 199.177 69.0638 198.932C69.6184 198.687 70.0878 198.351 70.4718 197.924L71.2718 198.74C70.7811 199.263 70.1944 199.679 69.5118 199.988C68.8291 200.287 68.0664 200.436 67.2237 200.436ZM80.4615 200.276L74.4455 194.532L80.3335 189.268H81.9015L75.6295 194.852V194.18L82.0615 200.276H80.4615ZM73.4855 200.276V189.268H74.6535V200.276H73.4855ZM85.1044 200.436C84.8377 200.436 84.619 200.345 84.4484 200.164C84.2777 199.983 84.1924 199.764 84.1924 199.508C84.1924 199.252 84.2777 199.039 84.4484 198.868C84.619 198.687 84.8377 198.596 85.1044 198.596C85.3604 198.596 85.5737 198.687 85.7444 198.868C85.915 199.039 86.0004 199.252 86.0004 199.508C86.0004 199.764 85.915 199.983 85.7444 200.164C85.5737 200.345 85.3604 200.436 85.1044 200.436ZM97.5669 200.436C96.7775 200.436 96.0415 200.292 95.3589 200.004C94.6869 199.716 94.1002 199.311 93.5989 198.788C93.0975 198.265 92.7082 197.663 92.4309 196.98C92.1642 196.287 92.0309 195.545 92.0309 194.756C92.0309 193.967 92.1642 193.231 92.4309 192.548C92.7082 191.855 93.0922 191.252 93.5829 190.74C94.0842 190.228 94.6709 189.828 95.3429 189.54C96.0149 189.252 96.7402 189.108 97.5189 189.108C98.3615 189.108 99.1135 189.257 99.7749 189.556C100.447 189.855 101.034 190.265 101.535 190.788L100.735 191.588C100.351 191.161 99.8869 190.831 99.3429 190.596C98.7989 190.351 98.1909 190.228 97.5189 190.228C96.9002 190.228 96.3295 190.34 95.8069 190.564C95.2949 190.788 94.8415 191.108 94.4469 191.524C94.0629 191.929 93.7642 192.409 93.5509 192.964C93.3482 193.508 93.2469 194.105 93.2469 194.756C93.2469 195.407 93.3535 196.009 93.5669 196.564C93.7802 197.119 94.0789 197.604 94.4629 198.02C94.8469 198.425 95.3002 198.74 95.8229 198.964C96.3455 199.188 96.9162 199.3 97.5349 199.3C98.2389 199.3 98.8629 199.177 99.4069 198.932C99.9615 198.687 100.431 198.351 100.815 197.924L101.615 198.74C101.124 199.263 100.538 199.679 99.8549 199.988C99.1722 200.287 98.4095 200.436 97.5669 200.436ZM108.335 200.436C107.557 200.436 106.831 200.292 106.159 200.004C105.498 199.705 104.917 199.3 104.415 198.788C103.914 198.265 103.519 197.663 103.231 196.98C102.954 196.287 102.815 195.545 102.815 194.756C102.815 193.956 102.954 193.215 103.231 192.532C103.509 191.849 103.898 191.252 104.399 190.74C104.901 190.228 105.482 189.828 106.143 189.54C106.805 189.252 107.525 189.108 108.303 189.108C109.082 189.108 109.802 189.252 110.463 189.54C111.135 189.828 111.722 190.228 112.223 190.74C112.725 191.252 113.114 191.855 113.391 192.548C113.669 193.231 113.807 193.972 113.807 194.772C113.807 195.561 113.669 196.303 113.391 196.996C113.114 197.679 112.725 198.276 112.223 198.788C111.733 199.3 111.157 199.705 110.495 200.004C109.834 200.292 109.114 200.436 108.335 200.436ZM108.303 199.3C109.135 199.3 109.871 199.103 110.511 198.708C111.162 198.313 111.669 197.775 112.031 197.092C112.405 196.409 112.591 195.631 112.591 194.756C112.591 194.105 112.485 193.508 112.271 192.964C112.058 192.409 111.759 191.929 111.375 191.524C110.991 191.108 110.538 190.788 110.015 190.564C109.503 190.34 108.933 190.228 108.303 190.228C107.482 190.228 106.746 190.425 106.095 190.82C105.455 191.204 104.949 191.737 104.575 192.42C104.213 193.103 104.031 193.881 104.031 194.756C104.031 195.407 104.138 196.009 104.351 196.564C104.565 197.119 104.863 197.604 105.247 198.02C105.631 198.425 106.085 198.74 106.607 198.964C107.13 199.188 107.695 199.3 108.303 199.3ZM116.239 200.276V189.268H117.071L117.407 190.66V200.276H116.239ZM123.855 200.276L116.895 190.836L117.071 189.268L124.015 198.708L123.855 200.276ZM123.855 200.276L123.503 198.948V189.268H124.687V200.276H123.855ZM127.649 200.276V189.268H128.481L128.817 190.66V200.276H127.649ZM135.265 200.276L128.305 190.836L128.481 189.268L135.425 198.708L135.265 200.276ZM135.265 200.276L134.913 198.948V189.268H136.097V200.276H135.265ZM139.059 200.276V189.268H140.227V200.276H139.059ZM139.827 200.276V199.204H146.307V200.276H139.827ZM139.827 195.156V194.116H145.795V195.156H139.827ZM139.827 190.34V189.268H146.211V190.34H139.827ZM153.382 200.436C152.593 200.436 151.857 200.292 151.174 200.004C150.502 199.716 149.916 199.311 149.414 198.788C148.913 198.265 148.524 197.663 148.246 196.98C147.98 196.287 147.846 195.545 147.846 194.756C147.846 193.967 147.98 193.231 148.246 192.548C148.524 191.855 148.908 191.252 149.398 190.74C149.9 190.228 150.486 189.828 151.158 189.54C151.83 189.252 152.556 189.108 153.334 189.108C154.177 189.108 154.929 189.257 155.59 189.556C156.262 189.855 156.849 190.265 157.35 190.788L156.55 191.588C156.166 191.161 155.702 190.831 155.158 190.596C154.614 190.351 154.006 190.228 153.334 190.228C152.716 190.228 152.145 190.34 151.622 190.564C151.11 190.788 150.657 191.108 150.262 191.524C149.878 191.929 149.58 192.409 149.366 192.964C149.164 193.508 149.062 194.105 149.062 194.756C149.062 195.407 149.169 196.009 149.382 196.564C149.596 197.119 149.894 197.604 150.278 198.02C150.662 198.425 151.116 198.74 151.638 198.964C152.161 199.188 152.732 199.3 153.35 199.3C154.054 199.3 154.678 199.177 155.222 198.932C155.777 198.687 156.246 198.351 156.63 197.924L157.43 198.74C156.94 199.263 156.353 199.679 155.67 199.988C154.988 200.287 154.225 200.436 153.382 200.436ZM162.388 200.276V189.572H163.572V200.276H162.388ZM158.516 190.34V189.268H167.444V190.34H158.516ZM169.341 200.436C169.075 200.436 168.856 200.345 168.685 200.164C168.515 199.983 168.429 199.764 168.429 199.508C168.429 199.252 168.515 199.039 168.685 198.868C168.856 198.687 169.075 198.596 169.341 198.596C169.597 198.596 169.811 198.687 169.981 198.868C170.152 199.039 170.237 199.252 170.237 199.508C170.237 199.764 170.152 199.983 169.981 200.164C169.811 200.345 169.597 200.436 169.341 200.436ZM179.852 200.436C178.998 200.436 178.262 200.276 177.644 199.956C177.025 199.625 176.481 199.167 176.012 198.58L176.828 197.78C177.201 198.303 177.633 198.692 178.124 198.948C178.625 199.204 179.217 199.332 179.9 199.332C180.604 199.332 181.174 199.172 181.612 198.852C182.049 198.532 182.268 198.089 182.268 197.524C182.268 197.087 182.166 196.729 181.964 196.452C181.761 196.164 181.494 195.935 181.164 195.764C180.844 195.583 180.486 195.423 180.092 195.284C179.697 195.145 179.302 195.001 178.908 194.852C178.524 194.692 178.166 194.495 177.836 194.26C177.505 194.025 177.238 193.727 177.036 193.364C176.844 193.001 176.748 192.537 176.748 191.972C176.748 191.375 176.892 190.863 177.18 190.436C177.468 190.009 177.862 189.684 178.364 189.46C178.865 189.225 179.436 189.108 180.076 189.108C180.79 189.108 181.425 189.247 181.98 189.524C182.545 189.801 183.014 190.175 183.388 190.644L182.588 191.444C182.246 191.039 181.873 190.729 181.468 190.516C181.062 190.303 180.588 190.196 180.044 190.196C179.404 190.196 178.892 190.345 178.508 190.644C178.124 190.943 177.932 191.359 177.932 191.892C177.932 192.308 178.028 192.644 178.22 192.9C178.422 193.156 178.689 193.369 179.02 193.54C179.35 193.711 179.708 193.865 180.092 194.004C180.486 194.132 180.881 194.276 181.276 194.436C181.67 194.596 182.028 194.799 182.348 195.044C182.678 195.289 182.945 195.604 183.148 195.988C183.35 196.361 183.452 196.841 183.452 197.428C183.452 198.377 183.126 199.119 182.476 199.652C181.836 200.175 180.961 200.436 179.852 200.436ZM188.325 200.276V189.572H189.509V200.276H188.325ZM184.453 190.34V189.268H193.381V190.34H184.453ZM193.019 200.276L197.531 189.268H198.411L202.875 200.276H201.611L197.723 190.548H198.187L194.267 200.276H193.019ZM195.083 197.412V196.372H200.843V197.412H195.083ZM211.893 200.276L205.877 194.532L211.765 189.268H213.333L207.061 194.852V194.18L213.493 200.276H211.893ZM204.917 200.276V189.268H206.085V200.276H204.917ZM215.342 200.276V189.268H216.51V200.276H215.342ZM216.11 200.276V199.204H222.59V200.276H216.11ZM216.11 195.156V194.116H222.078V195.156H216.11ZM216.11 190.34V189.268H222.494V190.34H216.11Z" fill="white"/>
<path d="M225.5 194.276H250.5" stroke="#49E6BA" stroke-width="2" stroke-linecap="round"/>
<path d="M128.405 91.5934L121.237 85.1314C121.027 84.9418 120.907 84.6718 120.907 84.3886V76.571C120.907 76.0187 120.459 75.571 119.907 75.571H113.741C113.189 75.571 112.741 76.0187 112.741 76.571V80.5604C112.741 80.8323 112.852 81.0926 113.048 81.2811L129.768 97.3634C129.964 97.552 130.075 97.8122 130.075 98.0842V133.392C130.075 134.341 128.877 134.757 128.29 134.012L103.215 102.206C103.076 102.029 103 101.811 103 101.587V90.7268C103 89.848 104.052 89.3965 104.689 90.0021L112.43 97.3629C112.629 97.5516 112.741 97.8136 112.741 98.0876V98.6027C112.741 98.8221 112.813 99.0355 112.947 99.2098L119.112 107.28C119.693 108.04 120.907 107.629 120.907 106.672V102.349C120.907 102.083 120.801 101.828 120.612 101.64L103.295 84.4142C103.106 84.2265 103 83.9714 103 83.7053V67.166C103 66.6137 103.448 66.166 104 66.166H129.075C129.627 66.166 130.075 66.6137 130.075 67.166V90.8507C130.075 91.7168 129.049 92.1734 128.405 91.5934Z" stroke="white"/>
<path d="M132.925 67.166V133.879C132.925 134.767 133.997 135.215 134.629 134.589L142.423 126.873V84.4066L146.392 88.2542L150.786 84.4066V111.734C150.786 112.683 151.984 113.099 152.571 112.354L160 102.932V67.166C160 66.6137 159.552 66.166 159 66.166H154.362C154.072 66.166 153.795 66.2923 153.606 66.5121L146.392 74.8588L139.178 66.5121C138.988 66.2923 138.712 66.166 138.421 66.166H133.925C133.373 66.166 132.925 66.6137 132.925 67.166Z" fill="white"/>
<path d="M131.996 0.5C133.45 0.5 134.671 1.00257 135.688 2.0166C136.703 3.02961 137.207 4.2479 137.207 5.7002C137.207 6.46127 137.054 7.16317 136.752 7.81152L136.613 8.08594C136.212 8.82084 135.69 9.40837 135.047 9.85645L134.626 10.1494L134.929 10.5625L148.137 28.5869L148.371 28.9062L148.735 28.752L162.444 22.9355L162.886 22.748L162.717 22.2988C162.614 22.0267 162.523 21.7221 162.444 21.3848L162.443 21.3838C162.369 21.0698 162.331 20.7337 162.331 20.375C162.331 18.9164 162.825 17.6949 163.814 16.6807C164.801 15.6702 166.005 15.1671 167.459 15.167C168.912 15.167 170.132 15.6702 171.147 16.6846C172.162 17.6997 172.665 18.9201 172.665 20.375C172.665 21.7099 172.224 22.8474 171.331 23.8105L171.146 24.001C170.13 25.0022 168.907 25.5 167.448 25.5C167.408 25.5 167.361 25.4969 167.309 25.4902L167.131 25.458C166.938 25.414 166.745 25.3916 166.552 25.3916H166.131L166.059 25.8066L160.244 59.334H103.753L97.9238 25.8057L97.8369 25.3057L97.3379 25.4004C97.2062 25.4254 97.0549 25.4494 96.8828 25.4707C96.7179 25.4912 96.5764 25.5 96.457 25.5C95.0031 25.5 93.799 25.0034 92.8125 24.0078C91.8234 23.0088 91.332 21.8076 91.332 20.375C91.3321 18.9165 91.8248 17.6949 92.8145 16.6807C93.8014 15.6701 95.006 15.167 96.46 15.167C97.9134 15.167 99.133 15.6701 100.147 16.6846C101.163 17.6997 101.666 18.9202 101.666 20.375C101.666 20.7504 101.634 21.0929 101.574 21.4033V21.4043C101.515 21.7098 101.423 21.9948 101.297 22.2607L101.074 22.7314L101.554 22.9355L115.262 28.752L115.627 28.9062L115.86 28.5869L129.068 10.5625L129.371 10.1494L128.951 9.85645C128.309 9.40909 127.786 8.81913 127.385 8.07715C126.989 7.34461 126.791 6.55722 126.791 5.70801C126.791 4.2538 127.294 3.03377 128.309 2.01855C129.323 1.0036 130.542 0.500098 131.996 0.5ZM131.595 16.3975L117.501 35.7363L104.99 30.5293L104.142 30.1758L104.307 31.0801L108.373 53.4229L108.448 53.834H155.55L155.624 53.4229L159.691 31.0801L159.855 30.1758L159.007 30.5293L146.495 35.7363L132.402 16.3975L131.999 15.8428L131.595 16.3975Z" stroke="white"/>
</svg>
